FFmpeg version SVN-r25716, Copyright (c) 2000-2010 the FFmpeg developers  built on Nov 10 2010 12:23:18 with gcc 4.1.2 20080704 (Red Hat 4.1.2-48)  configuration: --enable-libmp3lame --enable-shared --disable-mmx --arch=x86_64  libavutil     50.33. 0 / 50.33. 0  libavcore      0.12. 1 /  0.12. 1  libavcodec    52.94. 4 / 52.94. 4  libavformat   52.84. 0 / 52.84. 0  libavdevice   52. 2. 2 / 52. 2. 2  libavfilter    1.59. 0 /  1.59. 0  libswscale     0.12. 0 /  0.12. 0Input #0, avi, from '/RAID10/data/converted_video_files/47367.avi':  Duration: 00:00:06.00, start: 0.000000, bitrate: 232148 kb/s    Stream #0.0: Video: msvideo1, rgb555le, 1024x1024, 20 tbr, 20 tbn, 20 tbc[buffer @ 0x5a864c0] w:1024 h:1024 pixfmt:rgb555le[ffsink @ 0x5a855a0] auto-inserting filter 'auto-inserted scaler 0' between the filter 'src' and the filter 'out'[scale @ 0x5a84460] w:1024 h:1024 fmt:rgb555le -> w:1024 h:1024 fmt:yuv420p flags:0x4Output #0, flv, to '/RAID10/data/converted_video_files/47367.flv':  Metadata:    encoder         : Lavf52.84.0    Stream #0.0: Video: flv, yuv420p, 1024x1024, q=2-31, 600 kb/s, 1k tbn, 24 tbcStream mapping:  Stream #0.0 -> #0.0Press [q] to stop encodingframe=    7 fps=  0 q=9.5 size=     497kB time=0.33 bitrate=12187.1kbits/s    frame=   18 fps= 16 q=31.0 size=     561kB time=0.88 bitrate=5249.8kbits/s    frame=   29 fps= 17 q=31.0 size=     601kB time=1.46 bitrate=3375.7kbits/s    frame=   40 fps= 18 q=31.0 size=     645kB time=2.00 bitrate=2642.9kbits/s    frame=   48 fps= 18 q=31.0 size=     653kB time=2.38 bitrate=2252.6kbits/s    frame=   58 fps= 18 q=31.0 size=     687kB time=2.88 bitrate=1958.9kbits/s    frame=   66 fps= 18 q=31.0 size=     721kB time=3.29 bitrate=1794.3kbits/s    frame=   77 fps= 18 q=31.0 size=     759kB time=3.83 bitrate=1621.3kbits/s    frame=   88 fps= 18 q=31.0 size=     797kB time=4.38 bitrate=1492.4kbits/s    frame=   97 fps= 18 q=24.8 size=     833kB time=4.83 bitrate=1411.6kbits/s    frame=  107 fps= 18 q=31.0 size=     846kB time=5.33 bitrate=1298.8kbits/s    frame=  118 fps= 18 q=31.0 size=     885kB time=5.88 bitrate=1234.2kbits/s    frame=  128 fps= 18 q=31.0 size=     922kB time=6.37 bitrate=1185.5kbits/s    frame=  138 fps= 18 q=31.0 size=     959kB time=6.88 bitrate=1142.6kbits/s    frame=  144 fps= 18 q=31.0 size=     971kB time=7.21 bitrate=1103.8kbits/s    frame=  152 fps= 18 q=31.0 size=    1006kB time=7.58 bitrate=1087.1kbits/s    frame=  161 fps= 18 q=31.0 size=    1041kB time=8.04 bitrate=1060.3kbits/s    frame=  170 fps= 18 q=31.0 size=    1074kB time=8.50 bitrate=1035.4kbits/s    frame=  180 fps= 18 q=31.0 size=    1080kB time=9.00 bitrate= 983.5kbits/s    frame=  190 fps= 18 q=31.0 size=    1114kB time=9.50 bitrate= 961.0kbits/s    frame=  201 fps= 18 q=31.0 size=    1148kB time=10.04 bitrate= 936.7kbits/s    frame=  210 fps= 18 q=31.0 size=    1181kB time=10.50 bitrate= 921.7kbits/s    frame=  221 fps= 18 q=31.0 size=    1215kB time=11.04 bitrate= 901.6kbits/s    frame=  231 fps= 18 q=31.0 size=    1249kB time=11.54 bitrate= 886.5kbits/s    frame=  241 fps= 18 q=24.8 size=    1282kB time=12.04 bitrate= 872.2kbits/s    frame=  252 fps= 18 q=31.0 size=    1289kB time=12.58 bitrate= 839.2kbits/s    frame=  254 fps= 18 q=31.0 Lsize=    1318kB time=12.71 bitrate= 849.3kbits/s    video:1313kB audio:0kB global headers:0kB muxing overhead 0.317806%